# xmcd
#
# Track frame offsets:
#	150
#	5412
#	27740
#	54075
#	79117
#	102882
#	123812
#	147357
#	171452
#	192915
#	216357
#	241135
#
# Disc length: 3528 seconds
#
# Revision: 1
# Processed by: cddbd v1.5.1PL0 Copyright (c) Steve Scherf et al.
# Submitted via: CDex 1.50Beta5
#
DISCID=a00dc60c
DTITLE=BINGO BONGO - WILD PITCH
DYEAR=1994
DGENRE=Rock
TTITLE0=ワイルド・ピッチ
TTITLE1=イェイイェイ女到来
TTITLE2=ラッシュ・ステーション
TTITLE3=ドント・ユー・ノウ?
TTITLE4=ズビズバ
TTITLE5=ユースケの「サマー・ビーチジゴロ」
TTITLE6=四次元ルンバ
TTITLE7=翔んで灯に入る夏の蝶
TTITLE8=今宵恋はチャ!
TTITLE9=今夜もねむれない
TTITLE10=風にのれば
TTITLE11=ワイルド・ピッチ・ゴールド
EXTD=
EXTT0=
EXTT1=
EXTT2=
EXTT3=
EXTT4=
EXTT5=
EXTT6=
EXTT7=
EXTT8=
EXTT9=
EXTT10=
EXTT11=
PLAYORDER=
